<?xml version="1.0" standalone="no"?>
<!DOCTYPE svg PUBLIC "-//W3C//DTD SVG 20010904//EN"
 "http://www.w3.org/TR/2001/REC-SVG-20010904/DTD/svg10.dtd">
<svg version="1.0" xmlns="http://www.w3.org/2000/svg"
 width="700.000000pt" height="700.000000pt" viewBox="0 0 700.000000 700.000000"
 preserveAspectRatio="xMidYMid meet">
<metadata>
Created by potrace 1.14, written by Peter Selinger 2001-2017
</metadata>
<g transform="translate(0.000000,700.000000) scale(0.100000,-0.100000)"
fill="#000000" stroke="none">
<path d="M1637 6404 c-213 -40 -396 -216 -453 -436 -16 -58 -17 -263 -17
-2468 0 -2195 1 -2410 16 -2468 29 -108 75 -190 152 -268 78 -79 146 -121 250
-156 l70 -23 1845 0 1845 0 68 22 c199 63 352 224 403 423 16 60 17 256 17
2470 0 2190 -1 2411 -16 2467 -53 201 -202 360 -397 425 l-65 22 -1825 1
c-1433 1 -1840 -1 -1893 -11z m399 -577 c3 -3 6 -593 6 -1311 l0 -1306 30 22
c16 13 39 30 51 38 12 8 195 145 406 304 344 258 387 287 404 276 11 -6 208
-153 438 -326 l419 -314 2 1312 3 1311 728 1 727 1 -2 -2334 -3 -2335 -1735
-1 c-954 0 -1741 1 -1747 3 -17 5 -19 4658 -3 4664 18 6 270 2 276 -5z m1169
1 c3 -3 4 -330 3 -727 l-3 -723 -143 107 c-78 58 -146 105 -150 103 -4 -2 -67
-48 -141 -103 -73 -55 -136 -98 -139 -95 -4 3 -7 327 -7 720 0 557 2 716 12
720 16 6 562 5 568 -2z"/>
</g>
</svg>
